<svg width="86" height="86" viewBox="0 0 86 86" fill="none" xmlns="http://www.w3.org/2000/svg">
<path d="M69.0223 31.6255L68.7073 31.9405L56.7193 43.9268L56.3916 44.2544L55.952 44.108C54.5249 43.6326 52.9821 43.6326 51.555 44.108L51.1153 44.2544L50.7876 43.9267L41.9004 35.0395L41.598 34.7372L41.7042 34.323C41.9682 33.2926 41.9932 32.2155 41.7771 31.174C41.5611 30.1325 41.1097 29.1541 40.4576 28.3138C39.8055 27.4735 38.9698 26.7934 38.0146 26.3256C37.0593 25.8577 36.0097 25.6145 34.946 25.6145C33.8823 25.6145 32.8327 25.8577 31.8775 26.3256C30.9222 26.7934 30.0866 27.4735 29.4344 28.3138C28.7823 29.1541 28.3309 30.1325 28.1149 31.174C27.8988 32.2155 27.9238 33.2926 28.1879 34.323L28.294 34.7373L27.9915 35.0397L13.1279 49.8932L12.8125 50.2084L12.3849 50.0818C10.8946 49.6407 9.29983 49.7088 7.85259 50.2754C6.40536 50.842 5.18823 51.8748 4.3936 53.2105C3.59897 54.5462 3.27215 56.1086 3.46481 57.6508C3.65748 59.193 4.35862 60.6271 5.45743 61.7262L4.9339 62.2496L5.45743 61.7262C6.55624 62.8254 7.99003 63.527 9.53218 63.7201C11.0743 63.9133 12.6369 63.587 13.9728 62.7928C15.3088 61.9986 16.3419 60.7818 16.909 59.3347C17.4761 57.8877 17.5447 56.2929 17.1041 54.8025L16.9776 54.3748L17.293 54.0595L31.9684 39.3857L32.2962 39.058L32.7359 39.2046C34.1629 39.6803 35.7057 39.6803 37.1326 39.2046L37.5724 39.058L37.9001 39.3858L46.789 48.2747L47.0914 48.577L46.9852 48.9912C46.7212 50.0216 46.6962 51.0987 46.9123 52.1402C47.1283 53.1817 47.5797 54.16 48.2318 55.0004C48.8839 55.8407 49.7196 56.5208 50.6749 56.9886C51.6301 57.4565 52.6797 57.6997 53.7434 57.6997C54.8071 57.6997 55.8567 57.4565 56.812 56.9886C57.7672 56.5208 58.6029 55.8407 59.255 55.0004C59.9071 54.16 60.3585 53.1817 60.5745 52.1402C60.7906 51.0987 60.7656 50.0216 60.5016 48.9912L60.3954 48.5769L60.6979 48.2745L72.8723 36.1069L73.1874 35.7919L73.6147 35.918C74.5744 36.2011 75.5837 36.2745 76.5742 36.1332C77.5648 35.9919 78.5133 35.6391 79.3555 35.0989C80.1977 34.5587 80.9138 33.8437 81.4553 33.0023C81.9968 32.1609 82.351 31.2129 82.4939 30.2226C82.6367 29.2323 82.5649 28.2229 82.2833 27.2628C82.0016 26.3027 81.5168 25.4144 80.8616 24.6582C80.2064 23.902 79.3962 23.2955 78.486 22.88M69.0223 31.6255L78.486 22.88M69.0223 31.6255L68.8964 31.1982C68.5899 30.1579 68.5302 29.0605 68.7219 27.9931C68.9136 26.9257 69.3516 25.9177 70.0009 25.0491C70.6503 24.1805 71.4932 23.4753 72.4628 22.9894C73.4323 22.5035 74.5018 22.2503 75.5863 22.25L75.5861 21.5L75.5863 22.25C76.5869 22.2496 77.5758 22.4645 78.486 22.88M69.0223 31.6255L78.7975 22.1978L78.486 22.88" fill="#F25C70" stroke="white" stroke-width="1.5"/>
</svg>
