<svg width="101" height="99" viewBox="0 0 101 99" fill="none" xmlns="http://www.w3.org/2000/svg">
<g clip-path="url(#clip0_4458_3521)">
<path d="M17.2 28.6C17.2 28.2 16.8 27.9 16.4 28C15.8 28.1 15.2 28.2 14.8 28.2C14.3 28.3 14 28.4 13.9 28.4C13.5 28.5 13.3 28.9 13.4 29.3C13.5 29.6 13.8 29.9 14.1 29.9C14.2 29.9 14.2 29.9 14.3 29.9C14.3 29.9 15.2 29.7 16.6 29.5C16.6 29.5 16.6 29.5 16.7 29.5C17 29.3 17.3 29 17.2 28.6Z" fill="#F25C70"/>
<path d="M82.4 62.6C82.1 62.8 81.8 63.1 81.6 63.3C81.3 63.5 81.2 64 81.5 64.3C81.6 64.5 81.9 64.6 82.1 64.6C82.2 64.6 82.4 64.6 82.5 64.5C82.8 64.3 83.1 64 83.4 63.7C84.3 62.9 85.3 62 86.2 61C86.5 60.7 86.4 60.2 86.1 60C85.8 59.7 85.3 59.8 85.1 60.1C84.6 60.7 84 61.3 83.4 61.8C83 62 82.7 62.3 82.4 62.6Z" fill="#F25C70"/>
<path d="M43.4 37.6C43.5 37.7 43.7 37.8 43.9 37.8C44.1 37.8 44.3 37.7 44.4 37.6C44.7 37.3 44.7 36.9 44.4 36.6C43.9 36.1 43.4 35.7 42.9 35.2C42.6 34.9 42.3 34.7 41.9 34.4C41.4 34 41 33.7 40.5 33.3C40.2 33.1 39.7 33.2 39.5 33.5C39.3 33.8 39.4 34.3 39.7 34.5C40.5 35 41.2 35.6 41.9 36.3C42.2 36.6 42.5 36.9 42.9 37.2C43.1 37.3 43.2 37.5 43.4 37.6Z" fill="#F25C70"/>
<path d="M48.9001 45.4999C49.0001 45.7999 49.3001 45.8999 49.5001 45.8999C49.6001 45.8999 49.7001 45.8999 49.8001 45.7999C50.2001 45.5999 50.3001 45.1999 50.1001 44.7999C49.6001 43.7999 49.0001 42.7999 48.4001 41.7999C48.1001 41.2999 47.8001 40.8999 47.5001 40.3999C47.5001 40.3999 47.4001 40.3999 47.4001 40.2999C47.2001 39.9999 46.8001 39.9999 46.5001 40.1999C46.2001 40.3999 46.1001 40.8999 46.3001 41.1999C46.7001 41.7999 47.0001 42.2999 47.4001 42.8999C47.7001 43.4999 48.1001 43.9999 48.4001 44.5999C48.7001 44.9999 48.8001 45.2999 48.9001 45.4999Z" fill="#F25C70"/>
<path d="M59.3999 62.7C59.4999 62.7 59.5999 62.8 59.6999 62.8C59.8999 62.8 60.0999 62.7 60.1999 62.6C60.4999 62.3 60.4999 61.9 60.1999 61.6C59.8999 61.3 59.6999 61.1 59.3999 60.8C59.0999 60.5 58.7999 60.1 58.3999 59.7C57.8999 59.1 57.4999 58.6 56.9999 58C56.7999 57.7 56.2999 57.6 55.9999 57.9C55.6999 58.1 55.5999 58.6 55.8999 58.9C56.6999 60 57.5999 61 58.3999 61.9C58.6999 62.2 58.8999 62.4 59.1999 62.7C59.1999 62.6 59.2999 62.6 59.3999 62.7Z" fill="#F25C70"/>
<path d="M53.8 54.8999C53.9 54.8999 54 54.8999 54 54.7999H54.1C54.4 54.5999 54.6 54.1999 54.4 53.7999C54.3 53.5999 54.1 53.2999 54 53.0999C53.7 52.4999 53.4 51.8999 53 51.1999C52.7 50.5999 52.4 49.9999 52.2 49.3999C52 48.9999 51.6 48.8999 51.2 48.9999C50.8 49.1999 50.7 49.5999 50.8 49.9999C51.5 51.4999 52.2 52.8999 52.9 54.2999C52.9 54.3999 53 54.3999 53 54.4999C53.3 54.6999 53.5 54.8999 53.8 54.8999Z" fill="#F25C70"/>
<path d="M26.2999 29.5C26.7999 29.5 27.1 29.1999 27.1 28.9C27.2 28.5 26.9 28.1 26.5 28.1C25.9 28 25.2 28 24.5 27.9C24.2 27.9 23.9 27.7999 23.5 27.7999C22.8 27.7999 22.1 27.7 21.4 27.7C21 27.7 20.7 28 20.7 28.4C20.7 28.8 21 29.1 21.4 29.1C22.1 29.1 22.8 29.1 23.5 29.2C23.8 29.2 24.1 29.1999 24.5 29.2999C25.1 29.3999 25.6999 29.4 26.2999 29.5Z" fill="#F25C70"/>
<path d="M88.0999 57C88.1999 57.1 88.3999 57.1 88.4999 57.1C88.5999 57.1 88.6999 57.1 88.6999 57C88.7999 56.9 88.9999 56.9 89.0999 56.7C89.4999 56 90 55.3 90.4 54.6C90.6 54.3 90.4999 53.8 90.0999 53.6C89.7999 53.4 89.2999 53.5 89.0999 53.9C88.9999 54.1 88.7999 54.3 88.6999 54.5C88.3999 55 88.1 55.4 87.9 55.9C87.7 56.4 87.7999 56.8 88.0999 57Z" fill="#F25C70"/>
<path d="M29.9 0.199976C29.5 -0.100024 28.9 -0.100024 28.5 0.199976L0.8 14.6C0.3 14.9 0 15.3 0 15.9V95.7C0 96.2 0.3 96.7 0.7 96.9C0.9 97 1.2 97.1 1.4 97.1C1.6 97.1 1.9 97 2.1 96.9L29.8 82.5C30.3 82.3 30.6 81.8 30.6 81.2V30.2C30.7 30.3 30.8 30.4 31 30.5C32.5 30.9 34 31.5 35.3 32.1V82.5C35.3 83 35.6 83.5 36.1 83.8L63.8 98.2C64 98.3 64.2 98.4 64.5 98.4C64.8 98.4 65 98.3 65.2 98.2C65.6 97.9 65.9 97.5 65.9 97V67.1C66.5 67.4 67.2 67.6 67.8 67.8C67.9 67.8 67.9 67.8 68 67.8C68.3 67.8 68.6 67.6 68.7 67.3C68.8 66.9 68.6 66.5 68.2 66.4C67.4 66.2 66.7 65.9 65.9 65.6V17.1C65.9 16.6 65.6 16.1 65.1 15.8L37.4 1.29998C37 1.09998 36.4 1.09998 36 1.29998C35.6 1.59998 35.3 1.99998 35.3 2.49998V30.4C34 29.9 32.7 29.4 31.4 29C31.1 28.9 30.8 29 30.6 29.3V1.39998C30.6 0.899976 30.4 0.499976 29.9 0.199976ZM27.7 80.4L24.5 82L23.5 82.5L18.9 85L17.9 85.5L13.4 87.8L12.8 88.1L8 90.6L7.5 90.9L2.9 93.3V16.8L12.6 11.8L13 11.6L27.8 3.89998V80.4H27.7ZM38.2 4.99998L41.9 6.89998L42.9 7.39998L47.6 9.79998L48.6 10.3L53.1 12.6L54.1 13.1L63.2 17.8V64.4C63.1 64.4 63.1 64.5 63 64.6C62.8 64.9 62.9 65.3 63.2 65.5V94.3L59.5 92.4L58.5 91.9L54 89.8L53 89.3L48.5 87L47.5 86.5L42.9 84L41.9 83.5L38.2 81.6V4.99998Z" fill="#F25C70"/>
<path d="M70.3999 15.9V95.7C70.3999 96.2 70.6999 96.7 71.0999 96.9C71.2999 97 71.5999 97.1 71.7999 97.1C71.9999 97.1 72.2999 97 72.4999 96.9L88.2999 88.6L88.5999 88.4L93.4999 85.8L94.3999 85.4L100.2 82.4C100.7 82.2 101 81.7 101 81.1V1.39998C101 0.899976 100.7 0.399976 100.3 0.199976C99.8999 -0.100024 99.2999 -0.100024 98.8999 0.199976L71.1999 14.6C70.6999 14.9 70.3999 15.3 70.3999 15.9ZM98.0999 80.4L94.3999 82.3L93.3999 82.8L88.6999 85.2L87.6999 85.7L83.1999 88L82.1999 88.5L77.9999 90.9L76.9999 91.4L73.2999 93.3V68.2C74.5999 68.1 75.7999 67.8 76.9999 67.4C77.2999 67.3 77.5999 67.2 77.9999 67C77.9999 67 77.9999 67 78.0999 67C78.4999 66.8 78.5999 66.4 78.4999 66.1C78.3999 65.9 78.2999 65.8 78.0999 65.7C77.8999 65.6 77.7999 65.6 77.5999 65.7C77.3999 65.8 77.2999 65.8 77.0999 65.9C75.8999 66.4 74.5999 66.7 73.3999 66.8V16.8L77.0999 14.9L77.8999 14.5L82.4999 12.1L83.4999 11.6L87.9999 9.29998L88.9999 8.79998L93.6999 6.39998L94.6999 5.89998L98.3999 3.99998V80.4H98.0999Z" fill="#F25C70"/>
</g>
<defs>
<clipPath id="clip0_4458_3521">
<rect width="101" height="98.3" fill="white"/>
</clipPath>
</defs>
</svg>
