<svg width="119" height="61" viewBox="0 0 119 61" fill="none" xmlns="http://www.w3.org/2000/svg">
<g clip-path="url(#clip0_4458_3547)">
<path d="M99.7 40.7C97.4 40.3 94.8 40 92.2 39.7L90.6 31.9L84.4 1.9C84.3 1.3 83.9 0.7 83.4 0.4C82.9 0 82.2 -0.1 81.6 0.1C81.4 0.1 64.2 3.9 58.7 3.9C53 3.9 35.3 0.1 35.1 0.1C34.5 0 33.8 0.1 33.3 0.5C32.8 0.9 32.4 1.4 32.3 2.1L26.8 32L25.3 39.9C23 40.2 20.8 40.5 18.8 40.8C9.4 42.2 0 44.3 0 49.4C0 54.5 9.4 56.6 18.7 58.1C29.5 59.8 43.9 60.8 59.2 60.8C74.5 60.8 88.9 59.9 99.7 58.1C108.9 56.6 118.4 54.5 118.4 49.4C118.4 44.3 108.9 42.2 99.7 40.7ZM97 53.7C86.6 55.1 73.2 56 59.2 56C45.2 56 31.8 55.2 21.4 53.7C10 52 6.3 50.2 5.2 49.4C6.3 48.6 10 46.8 21.4 45.1C22.3 45 23.3 44.8 24.3 44.7L23.7 48.1C23.6 48.8 23.8 49.5 24.2 50.1C24.7 50.6 25.3 51 26 51H91.6C92.3 51 93 50.7 93.5 50.1C94 49.5 94.1 48.8 94 48.1L93.3 44.7C94.6 44.9 95.8 45 97 45.2C108.4 46.8 112.1 48.7 113.2 49.5C112.1 50.2 108.4 52 97 53.7ZM80.2 5.3L85.3 30H31.9L36.4 5.3C41.6 6.4 53.7 8.7 58.6 8.7C63.4 8.7 75.1 6.3 80.2 5.3ZM29 45.6L31 34.8H86.3L88.6 46.2H29H28.9L29 45.6Z" fill="#F25C70"/>
</g>
<defs>
<clipPath id="clip0_4458_3547">
<rect width="118.4" height="60.8" fill="white"/>
</clipPath>
</defs>
</svg>
