<svg width="368" height="213" viewBox="0 0 368 213" fill="none" xmlns="http://www.w3.org/2000/svg">
<path d="M45.925 153.92V196.64H36.405V191.12C33.045 195.2 28.085 197.2 22.245 197.2C9.76503 197.2 0.64502 188.56 0.64502 175.28C0.64502 162 9.76503 153.44 22.245 153.44C27.685 153.44 32.485 155.28 35.925 159.12V153.92H45.925ZM36.085 175.28C36.085 167.12 30.645 161.92 23.365 161.92C16.085 161.92 10.725 167.12 10.725 175.28C10.725 183.44 16.165 188.64 23.365 188.64C30.565 188.64 36.085 183.44 36.085 175.28Z" fill="white"/>
<path d="M97.1249 172.16V196.64H87.1249V173.44C87.1249 165.84 83.3649 162.16 76.9649 162.16C69.8449 162.16 65.0449 166.48 65.0449 175.04V196.64H55.0449V153.92H64.5649V159.44C67.8449 155.52 73.0449 153.44 79.2849 153.44C89.5249 153.44 97.1249 159.28 97.1249 172.16Z" fill="white"/>
<path d="M129.845 194.32C127.445 196.24 123.845 197.2 120.245 197.2C110.885 197.2 105.525 192.24 105.525 182.8V144.48H115.525V154.24H126.965V162.24H115.525V182.56C115.525 186.72 117.685 188.96 121.445 188.96C123.525 188.96 125.525 188.4 127.045 187.2L129.845 194.32Z" fill="white"/>
<path d="M158.805 153.44V162.96C157.925 162.8 157.205 162.72 156.485 162.72C148.885 162.72 144.085 167.2 144.085 175.92V196.64H134.085V153.92H143.605V160.16C146.485 155.68 151.685 153.44 158.805 153.44Z" fill="white"/>
<path d="M159.365 175.28C159.365 162.48 168.965 153.44 182.085 153.44C195.205 153.44 204.885 162.48 204.885 175.28C204.885 188.08 195.365 197.2 182.085 197.2C168.805 197.2 159.365 188.08 159.365 175.28ZM194.805 175.28C194.805 167.12 189.365 161.92 182.085 161.92C174.805 161.92 169.445 167.12 169.445 175.28C169.445 183.44 174.885 188.64 182.085 188.64C189.285 188.64 194.805 183.44 194.805 175.28Z" fill="white"/>
<path d="M255.845 175.28C255.845 188.56 246.645 197.2 234.165 197.2C228.725 197.2 223.925 195.36 220.485 191.44V212.16H210.485V153.92H220.005V159.52C223.365 155.44 228.325 153.44 234.165 153.44C246.645 153.44 255.845 162.08 255.845 175.28ZM245.675 175.28C245.675 167.12 240.235 161.92 233.035 161.92C225.835 161.92 220.315 167.12 220.315 175.28C220.315 183.44 225.835 188.64 233.035 188.64C240.235 188.64 245.675 183.44 245.675 175.28Z" fill="white"/>
<path d="M259.995 140.88C259.995 137.52 262.715 134.88 266.395 134.88C270.075 134.88 272.795 137.36 272.795 140.64C272.795 144.16 270.155 146.88 266.395 146.88C262.635 146.88 259.995 144.24 259.995 140.88ZM261.355 153.92H271.355V196.64H261.355V153.92Z" fill="white"/>
<path d="M297.915 178.32L290.475 185.36V196.64H280.475V137.28H290.475V173.12L311.195 153.92H323.195L305.355 171.84L324.875 196.64H312.715L297.915 178.32Z" fill="white"/>
<path d="M367.355 153.92V196.64H357.835V191.12C354.475 195.2 349.515 197.2 343.675 197.2C331.195 197.2 322.075 188.56 322.075 175.28C322.075 162 331.195 153.44 343.675 153.44C349.115 153.44 353.915 155.28 357.355 159.12V153.92H367.355ZM357.515 175.28C357.515 167.12 352.075 161.92 344.795 161.92C337.515 161.92 332.155 167.12 332.155 175.28C332.155 183.44 337.595 188.64 344.795 188.64C351.995 188.64 357.515 183.44 357.515 175.28Z" fill="white"/>
<path d="M240.695 56.69C240.695 25.43 215.265 0 184.005 0C152.745 0 127.315 25.43 127.315 56.69C127.315 77.26 138.325 95.3 154.765 105.24C155.005 105.39 155.245 105.56 155.485 105.7C158.375 107.39 161.405 108.8 164.535 109.94C165.395 110.25 166.255 110.55 167.125 110.82C167.145 110.82 167.165 110.83 167.195 110.84C168.005 111.09 168.825 111.32 169.645 111.54C169.835 111.59 170.025 111.64 170.215 111.68C170.885 111.85 171.555 112 172.225 112.15C172.405 112.19 172.575 112.23 172.745 112.26C173.515 112.42 174.295 112.55 175.065 112.68C175.315 112.72 175.575 112.76 175.825 112.79C176.505 112.89 177.175 112.98 177.855 113.05C178.015 113.07 178.165 113.09 178.325 113.1C179.145 113.18 179.965 113.24 180.785 113.29C181.005 113.3 181.225 113.31 181.435 113.32C182.285 113.36 183.145 113.39 184.005 113.39C184.865 113.39 185.715 113.36 186.575 113.32C186.805 113.31 187.025 113.3 187.245 113.29C188.075 113.24 188.895 113.18 189.715 113.1C189.845 113.09 189.975 113.07 190.105 113.05C190.805 112.97 191.505 112.88 192.195 112.78C192.465 112.74 192.735 112.7 192.995 112.66C193.775 112.54 194.555 112.4 195.325 112.24C195.465 112.21 195.605 112.18 195.745 112.15C196.435 112 197.125 111.84 197.805 111.67C198.025 111.62 198.235 111.56 198.455 111.51C200.125 111.07 201.785 110.55 203.405 109.96C203.455 109.94 203.495 109.93 203.545 109.91C206.785 108.72 209.915 107.25 212.895 105.48C213.255 105.27 213.595 105.04 213.935 104.81C229.985 94.79 240.695 76.97 240.695 56.7V56.69ZM147.045 86.22C140.555 78.12 136.665 67.85 136.665 56.69C136.665 30.59 157.895 9.36 183.995 9.36C210.095 9.36 231.325 30.59 231.325 56.69C231.325 67.85 227.435 78.12 220.945 86.22L220.765 86.16C220.585 83.86 218.385 81.01 217.265 79.58L186.405 41.73C185.155 40.2 182.815 40.2 181.565 41.73L150.515 79.84C148.605 82.49 147.695 83.79 147.235 86.15L147.045 86.21M206.815 98.14C206.605 98.26 206.395 98.37 206.185 98.48C205.645 98.77 205.105 99.05 204.545 99.32C204.305 99.44 204.055 99.54 203.815 99.66C202.915 100.09 201.405 100.7 200.475 101.05C200.275 101.13 200.065 101.2 199.865 101.28C199.485 101.42 199.105 101.54 198.725 101.67C198.155 101.86 197.575 102.03 196.985 102.2C196.695 102.28 196.405 102.37 196.105 102.45C195.215 102.69 194.305 102.9 193.405 103.08C193.285 103.11 193.155 103.12 193.025 103.15C192.215 103.31 191.405 103.44 190.595 103.55C190.325 103.59 190.055 103.62 189.785 103.65C189.085 103.74 188.385 103.81 187.685 103.86C187.405 103.88 187.135 103.91 186.855 103.92C185.905 103.98 184.955 104.01 183.995 104.01C183.035 104.01 182.085 103.97 181.135 103.92C180.875 103.9 180.615 103.88 180.355 103.86C179.645 103.8 178.925 103.74 178.215 103.65C177.945 103.62 177.675 103.58 177.405 103.55C176.595 103.44 175.795 103.3 174.985 103.15C174.855 103.12 174.725 103.11 174.595 103.08C173.685 102.9 172.795 102.68 171.905 102.45C171.605 102.37 171.305 102.28 171.005 102.19C170.435 102.03 169.865 101.85 169.305 101.67C168.915 101.54 168.525 101.41 168.135 101.27C167.345 100.99 166.565 100.66 165.785 100.38C165.125 100.14 164.505 99.83 163.875 99.51C163.745 99.45 163.615 99.39 163.485 99.33C162.905 99.05 162.335 98.75 161.765 98.45C161.595 98.36 161.415 98.26 161.245 98.17C161.175 98.13 161.115 98.1 161.045 98.06C159.775 97.35 158.625 96.43 157.705 95.3C156.995 94.42 156.455 93.45 156.205 92.32C155.855 90.67 156.105 89.14 156.755 87.66C157.195 86.64 157.825 85.71 158.525 84.85L183.955 53.63H184.035L209.595 84.98C210.205 85.78 210.625 86.31 211.015 87.05C211.915 88.77 212.205 90.42 211.805 92.31C211.515 93.69 210.895 94.68 209.945 95.7C209.045 96.67 207.995 97.49 206.835 98.12C206.835 98.12 206.825 98.12 206.815 98.12V98.14Z" fill="#EB5D71"/>
<path d="M184.005 36.7C177.545 36.7 172.285 31.44 172.285 24.98C172.285 18.52 177.545 13.26 184.005 13.26C190.465 13.26 195.725 18.52 195.725 24.98C195.725 31.44 190.465 36.7 184.005 36.7ZM184.005 20.26C181.405 20.26 179.285 22.38 179.285 24.98C179.285 27.58 181.405 29.7 184.005 29.7C186.605 29.7 188.725 27.58 188.725 24.98C188.725 22.38 186.605 20.26 184.005 20.26Z" fill="#EB5D71"/>
</svg>
