<svg width="99" height="99" viewBox="0 0 99 99" fill="none" xmlns="http://www.w3.org/2000/svg">
<path d="M11.625 30.9375V31.6875H12.375H15.4688C16.4882 31.6875 17.4658 31.2825 18.1867 30.5617C18.9075 29.8408 19.3125 28.8632 19.3125 27.8438V24.75V24H18.5625H13.9219C13.3127 24 12.7285 24.242 12.2977 24.6727C11.867 25.1035 11.625 25.6877 11.625 26.2969V30.9375ZM18.5625 62.625H19.3125V61.875V58.7812C19.3125 57.7618 18.9075 56.7841 18.1867 56.0633C17.4658 55.3425 16.4882 54.9375 15.4688 54.9375H12.375H11.625V55.6875V60.3281C11.625 61.5962 12.6538 62.625 13.9219 62.625H18.5625ZM24 61.875V62.625H24.75H61.875H62.625V61.875V58.7812C62.625 56.5186 63.5238 54.3487 65.1237 52.7487C66.7237 51.1488 68.8936 50.25 71.1562 50.25H74.25H75V49.5V37.125V36.375H74.25H71.1562C68.8936 36.375 66.7237 35.4762 65.1237 33.8763C63.5238 32.2763 62.625 30.1064 62.625 27.8438V24.75V24H61.875H24.75H24V24.75V27.8438C24 30.1064 23.1012 32.2763 21.5013 33.8763C19.9013 35.4762 17.7314 36.375 15.4688 36.375H12.375H11.625V37.125V49.5V50.25H12.375H15.4688C17.7314 50.25 19.9013 51.1488 21.5013 52.7487C23.1012 54.3487 24 56.5186 24 58.7812V61.875ZM67.3125 61.875V62.625H68.0625H72.7031C73.3123 62.625 73.8965 62.383 74.3273 61.9523C74.758 61.5215 75 60.9373 75 60.3281V55.6875V54.9375H74.25H71.1562C70.1368 54.9375 69.1592 55.3425 68.4383 56.0633C67.7175 56.7842 67.3125 57.7618 67.3125 58.7812V61.875ZM74.25 31.6875H75V30.9375V26.2969C75 25.6877 74.758 25.1035 74.3273 24.6727C73.8965 24.242 73.3123 24 72.7031 24H68.0625H67.3125V24.75V27.8438C67.3125 28.8632 67.7175 29.8408 68.4383 30.5617C69.1591 31.2825 70.1368 31.6875 71.1562 31.6875H74.25ZM27.8438 79.6875H27.8435C26.0418 79.6882 24.2861 79.1185 22.8281 78.06C21.7044 77.2441 20.802 76.1702 20.1921 74.9362C20.6743 74.9788 21.1624 75 21.6562 75H72.7031C76.5944 75 80.3262 73.4542 83.0777 70.7027C85.8292 67.9512 87.375 64.2193 87.375 60.3281V32.5976C88.6157 33.2237 89.6899 34.1463 90.4983 35.2902C91.5169 36.7316 92.0634 38.4534 92.0625 40.2184V40.2188V60.3281C92.0625 62.8704 91.5618 65.3878 90.5889 67.7366C89.616 70.0854 88.1899 72.2196 86.3923 74.0173C84.5946 75.815 82.4604 77.241 80.1116 78.2139C77.7628 79.1868 75.2454 79.6875 72.7031 79.6875H27.8438ZM54.9375 43.3125C54.9375 46.3956 53.7127 49.3525 51.5326 51.5326C49.3525 53.7127 46.3956 54.9375 43.3125 54.9375C40.2294 54.9375 37.2725 53.7127 35.0924 51.5326C32.9123 49.3525 31.6875 46.3956 31.6875 43.3125C31.6875 40.2294 32.9123 37.2725 35.0924 35.0924C37.2725 32.9123 40.2294 31.6875 43.3125 31.6875C46.3956 31.6875 49.3525 32.9123 51.5326 35.0924C53.7127 37.2725 54.9375 40.2294 54.9375 43.3125ZM50.25 43.3125C50.25 41.4726 49.5191 39.708 48.2181 38.4069C46.917 37.1059 45.1524 36.375 43.3125 36.375C41.4726 36.375 39.708 37.1059 38.4069 38.4069C37.1059 39.708 36.375 41.4726 36.375 43.3125C36.375 45.1524 37.1059 46.917 38.4069 48.2181C39.708 49.5191 41.4726 50.25 43.3125 50.25C45.1524 50.25 46.917 49.5191 48.2181 48.2181C49.5191 46.917 50.25 45.1524 50.25 43.3125ZM6.9375 26.2969C6.9375 22.4417 10.0667 19.3125 13.9219 19.3125H72.7031C76.5583 19.3125 79.6875 22.4417 79.6875 26.2969V60.3281C79.6875 64.1833 76.5583 67.3125 72.7031 67.3125H13.9219C10.0667 67.3125 6.9375 64.1833 6.9375 60.3281V26.2969Z" fill="#F25C70" stroke="white" stroke-width="1.5"/>
</svg>
