<svg width="24" height="24" viewBox="0 0 24 24" fill="none" xmlns="http://www.w3.org/2000/svg">
<path d="M20.5801 19.37L17.5901 11.01C17.3801 10.46 16.9101 10.12 16.3701 10.12C15.8301 10.12 15.3701 10.46 15.1401 11.03L12.1601 19.37C12.1234 19.4633 12.1057 19.563 12.1081 19.6633C12.1106 19.7635 12.1331 19.8623 12.1744 19.9536C12.2156 20.045 12.2748 20.1272 12.3484 20.1953C12.422 20.2635 12.5085 20.3161 12.6028 20.3502C12.6971 20.3843 12.7973 20.3992 12.8974 20.3939C12.9976 20.3886 13.0956 20.3633 13.1858 20.3195C13.276 20.2756 13.3565 20.2142 13.4225 20.1387C13.4885 20.0632 13.5387 19.9752 13.5701 19.88L14.1901 18.15H18.5401L19.1601 19.88C19.2701 20.19 19.5601 20.38 19.8701 20.38C19.9501 20.38 20.0401 20.37 20.1201 20.34C20.307 20.2723 20.4594 20.1332 20.5438 19.9532C20.6282 19.7731 20.6377 19.567 20.5701 19.38L20.5801 19.37ZM14.7401 16.64L16.3801 12.05L18.0201 16.64H14.7401ZM12.1901 7.85C9.93012 11.42 7.89012 13.58 5.41012 15.02C5.32542 15.0693 5.23184 15.1014 5.13474 15.1144C5.03764 15.1275 4.93891 15.1214 4.84419 15.0963C4.74947 15.0712 4.66062 15.0277 4.58271 14.9683C4.5048 14.9089 4.43935 14.8347 4.39012 14.75C4.34006 14.6655 4.30731 14.5719 4.2938 14.4746C4.28028 14.3774 4.28626 14.2784 4.3114 14.1834C4.33653 14.0885 4.3803 13.9995 4.44017 13.9217C4.50004 13.8438 4.57481 13.7787 4.66012 13.73C6.76012 12.51 8.48012 10.76 10.4101 7.86H4.12012C3.71012 7.86 3.37012 7.52 3.37012 7.11C3.37012 6.7 3.71012 6.36 4.12012 6.36H7.87012V4.38C7.87012 3.97 8.21012 3.63 8.62012 3.63C9.03012 3.63 9.37012 3.97 9.37012 4.38V6.36H13.1201C13.5301 6.36 13.8701 6.7 13.8701 7.11C13.8701 7.52 13.5301 7.86 13.1201 7.86H12.1801L12.1901 7.85ZM12.2301 15.12C12.1001 15.12 11.9701 15.09 11.8501 15.02C11.2001 14.64 10.5701 14.22 9.98012 13.78C9.82099 13.6607 9.71579 13.483 9.68766 13.2861C9.65952 13.0892 9.71077 12.8891 9.83012 12.73C9.94946 12.5709 10.1271 12.4657 10.3241 12.4375C10.521 12.4094 10.721 12.4607 10.8801 12.58C11.4201 12.99 12.0101 13.37 12.6101 13.72C12.7522 13.8037 12.8628 13.9317 12.925 14.0843C12.9872 14.237 12.9975 14.4059 12.9543 14.565C12.9111 14.7241 12.8168 14.8646 12.686 14.9649C12.5551 15.0652 12.395 15.1197 12.2301 15.12Z" fill="#39425D"/>
</svg>
